<?xml version="1.0" standalone="no"?>
<!DOCTYPE svg PUBLIC "-//W3C//DTD SVG 20010904//EN"
 "http://www.w3.org/TR/2001/REC-SVG-20010904/DTD/svg10.dtd">
<svg version="1.0" xmlns="http://www.w3.org/2000/svg"
 width="440.000000pt" height="582.000000pt" viewBox="0 0 440.000000 582.000000"
 preserveAspectRatio="xMidYMid meet">

<g transform="translate(0.000000,582.000000) scale(0.100000,-0.100000)"
fill="#000000" stroke="none">
<path d="M1059 5675 c-308 -45 -522 -185 -637 -420 -64 -130 -83 -199 -80
-284 l3 -74 363 -4 c340 -3 363 -2 368 14 28 90 97 168 180 204 84 38 281 20
429 -39 28 -11 115 -50 195 -87 339 -157 340 -158 459 -180 105 -19 161 -19
281 0 319 52 470 136 470 263 0 48 30 78 120 121 36 17 73 37 82 44 23 18 75
129 83 179 7 37 11 42 70 68 68 31 109 73 131 136 8 21 14 40 14 42 0 1 -18 2
-41 2 -37 0 -197 -30 -484 -90 -259 -55 -610 -75 -800 -47 -207 32 -416 70
-585 107 -167 38 -365 61 -484 59 -28 -1 -90 -7 -137 -14z"/>
<path d="M400 4675 c0 -2 20 -48 45 -101 25 -53 45 -97 45 -100 0 -2 22 -49
49 -106 27 -57 60 -128 74 -158 23 -52 42 -93 118 -257 17 -38 66 -144 109
-238 43 -93 97 -210 120 -260 23 -49 56 -119 72 -155 16 -36 55 -119 85 -185
30 -66 79 -172 108 -235 29 -63 70 -151 90 -195 38 -82 70 -152 110 -240 12
-27 79 -171 148 -320 68 -148 135 -292 147 -320 12 -27 38 -84 57 -125 19 -41
46 -100 60 -130 14 -30 46 -98 70 -150 25 -52 75 -165 113 -250 62 -143 174
-377 184 -388 3 -2 65 119 139 269 74 151 217 441 317 644 297 603 793 1609
945 1920 62 127 208 421 323 655 l210 425 -644 3 c-354 1 -934 1 -1288 0
l-644 -3 24 -60 c14 -33 34 -82 46 -110 11 -27 24 -59 28 -70 5 -11 15 -36 23
-55 8 -19 39 -93 67 -165 29 -71 59 -142 66 -157 l15 -28 595 0 c499 0 595 -2
600 -14 3 -8 -22 -71 -55 -141 -34 -70 -61 -129 -61 -131 0 -1 -23 -51 -51
-111 -28 -59 -79 -169 -114 -243 -35 -74 -100 -214 -145 -310 -45 -96 -93
-200 -107 -230 -14 -30 -68 -142 -119 -249 -52 -107 -94 -197 -94 -200 0 -3
-9 -17 -20 -31 l-19 -25 -129 265 c-71 146 -157 321 -190 390 -64 134 -174
363 -279 580 -36 74 -85 176 -108 225 -23 50 -71 149 -105 220 -34 72 -89 186
-122 255 -33 69 -89 187 -125 263 l-66 137 -359 0 c-197 0 -358 -2 -358 -5z"/>
<path d="M986 3069 c-36 -43 -44 -63 -27 -73 18 -12 191 -245 191 -258 0 -39
-120 -188 -152 -188 -10 0 -82 16 -160 36 -78 19 -146 33 -152 31 -12 -5 -82
-174 -75 -181 2 -2 63 -41 134 -86 72 -45 135 -87 142 -93 15 -15 -36 -215
-58 -227 -8 -5 -68 -15 -134 -24 -66 -9 -137 -19 -158 -22 l-38 -6 3 -105 3
-105 35 -12 c20 -7 97 -27 173 -46 l137 -33 5 -36 c3 -20 10 -60 15 -90 5 -29
8 -57 5 -61 -3 -4 -46 -36 -97 -70 -51 -35 -114 -78 -140 -97 l-47 -34 30 -81
c16 -45 30 -83 32 -84 1 -2 63 10 137 26 74 15 151 31 171 34 l37 7 55 -88
c30 -49 57 -96 60 -105 4 -12 -25 -58 -97 -150 -77 -99 -102 -137 -95 -149 16
-30 100 -118 119 -124 14 -5 56 19 152 84 72 50 138 91 145 91 36 0 183 -123
183 -152 0 -18 -26 -110 -70 -248 -21 -65 -24 -62 91 -120 l76 -39 37 52 c20
29 64 94 96 145 33 50 63 92 68 92 14 0 151 -40 191 -56 46 -18 41 -1 67 -217
l17 -138 101 3 100 3 29 170 c15 93 31 173 35 177 4 3 56 17 116 29 l109 23
23 -29 c13 -16 47 -72 76 -125 29 -52 58 -101 65 -108 7 -7 13 -18 13 -23 0
-5 7 -9 16 -9 19 0 131 54 161 78 l22 17 -30 90 c-24 74 -59 204 -59 220 0 7
198 145 208 145 5 0 58 -39 118 -86 165 -131 145 -124 210 -69 30 26 63 59 71
72 15 23 15 27 -1 56 -9 18 -42 61 -72 97 -31 36 -67 82 -81 103 -31 44 -29
50 49 170 35 53 57 77 70 77 11 0 81 -16 156 -35 130 -34 162 -37 162 -16 0 5
18 42 41 81 22 40 39 73 37 75 -2 1 -61 40 -133 85 -71 45 -135 87 -142 93 -9
9 -6 38 13 122 14 61 29 114 34 118 4 5 76 20 159 33 83 13 156 26 161 29 6 3
10 48 10 99 l0 94 -113 21 c-63 11 -132 21 -155 21 -45 0 -69 17 -78 58 -3 15
-10 43 -14 62 -5 19 -11 56 -15 82 -6 46 -5 48 32 72 21 13 79 46 129 73 50
26 101 55 113 63 l22 15 -36 113 c-20 61 -40 112 -45 112 -4 0 -72 -25 -149
-55 -78 -30 -150 -55 -161 -55 -22 0 -98 95 -133 166 l-20 41 88 104 c48 57
96 114 106 127 20 23 20 23 -12 73 -18 27 -36 49 -40 49 -10 0 -70 -112 -250
-468 -88 -172 -159 -321 -159 -330 0 -9 17 -44 38 -77 21 -33 47 -80 59 -105
27 -58 47 -219 40 -319 -13 -199 -175 -514 -345 -673 -60 -56 -280 -167 -391
-198 -41 -11 -78 -23 -83 -28 -4 -4 -37 -68 -73 -142 -58 -119 -82 -150 -93
-121 -1 4 -37 67 -80 140 l-77 134 -95 36 c-271 105 -439 242 -578 475 -83
138 -116 257 -116 421 0 175 44 329 119 421 19 23 35 49 35 58 0 9 -69 154
-153 323 -84 170 -172 350 -194 401 l-40 93 -37 -42z"/>
</g>
</svg>
